/* XPM */
static char *_36c5c7394054072882031e7672ed169Mi2Ws99l0iFH4ISp[] = {
/* columns rows colors chars-per-pixel */
"32 32 154 2 ",
"   c None",
".  c #0E0E0E",
"X  c #0F0F10",
"o  c #131212",
"O  c #191716",
"+  c #1A1917",
"@  c #1A1A19",
"#  c #2D1718",
"$  c #36191B",
"%  c #381B1D",
"&  c #23201E",
"*  c #2A221E",
"=  c #171B20",
"-  c #1D2229",
";  c #1E2733",
":  c #232221",
">  c #2A2521",
",  c #2C2B2B",
"<  c #2B2823",
"1  c #322C26",
"2  c #322E28",
"3  c #3D2F2D",
"4  c #34312C",
"5  c #3E352D",
"6  c #3F382F",
"7  c #212832",
"8  c #212E3F",
"9  c #343434",
"0  c #3E3930",
"q  c #3D3D3C",
"w  c #40392F",
"e  c #43362F",
"r  c #433C32",
"t  c #4B3C34",
"y  c #494136",
"u  c #4D4439",
"i  c #544138",
"p  c #564D3F",
"a  c #584D3E",
"s  c #59463C",
"d  c #29374B",
"f  c #27364A",
"g  c #2B3C52",
"h  c #3F4040",
"j  c #2E425B",
"k  c #32445D",
"l  c #3D4B5C",
"z  c #334763",
"x  c #344A66",
"c  c #384C68",
"v  c #395172",
"b  c #464545",
"n  c #4C4C4C",
"m  c #5C5142",
"M  c #4E4F50",
"N  c #4F5151",
"B  c #525354",
"V  c #5C5D5D",
"C  c #5B5552",
"Z  c #654D42",
"A  c #675044",
"S  c #645847",
"D  c #685C4C",
"F  c #625D55",
"G  c #685B55",
"H  c #6F624F",
"J  c #726552",
"K  c #776954",
"L  c #7D6E59",
"P  c #7B6C56",
"I  c #5F6264",
"U  c #626363",
"Y  c #6A6A6A",
"T  c #60646A",
"R  c #726B62",
"E  c #767068",
"W  c #79706B",
"Q  c #6E7176",
"!  c #737373",
"~  c gray50",
"^  c #8C2E34",
"/  c #872D33",
"(  c #9E3239",
")  c #AE373E",
"_  c #B2363D",
"`  c #B0383F",
"'  c #B43A41",
"]  c #AD4A4F",
"[  c #B54349",
"{  c #B9454C",
"}  c #B9484F",
"|  c #B94A50",
" . c #86765F",
".. c #8A7A62",
"X. c #A27B7E",
"o. c #C77B7F",
"O. c #C57579",
"+. c #96856A",
"@. c #99866B",
"#. c #9B896C",
"$. c #87817D",
"%. c #A08D70",
"&. c #A49173",
"*. c #AA9677",
"=. c #AE9979",
"-. c #B59F7E",
";. c #486790",
":. c #4A6A94",
">. c #4C6D99",
",. c #8C8C8D",
"<. c #968C86",
"1. c #9F928C",
"2. c #9C9C9C",
"3. c #A59D9E",
"4. c #B8A280",
"5. c #A3A4A4",
"6. c #ADADAD",
"7. c #B3B4B4",
"8. c #B7B9B9",
"9. c gray72",
"0. c #CD868A",
"q. c #CB8A8E",
"w. c #CD8F93",
"e. c #CE9296",
"r. c #D29A9E",
"t. c #C1A986",
"y. c #C6AE89",
"u. c #C8AF8A",
"i. c #CBB28C",
"p. c #D0B790",
"a. c #D5BB93",
"s. c #D9BE96",
"d. c #D39EA1",
"f. c #CDB9BA",
"g. c #DAB6B8",
"h. c #DCBABC",
"j. c #DBC097",
"k. c #DDBEC0",
"l. c #BEC1C0",
"z. c #C3C4C3",
"x. c #CCCCCC",
"c. c #DDC2C4",
"v. c #D1D1D1",
"b. c #DFDFDF",
"n. c #E2CCCD",
"m. c #E5D7D8",
"M. c #E9D7D8",
"N. c #E6DCDD",
"B. c #E4D4D5",
"V. c #E4E2E2",
"C. c #EAE5E5",
"Z. c #ECEDED",
"A. c #EFF0F0",
"S. c #F1F1F1",
/* pixels */
"                                                                ",
"                        o X o X o                               ",
"                    . b 5.U 5.2.5.Y .                           ",
"                  V ,.6.N.o.0.0.n.l.,.!                         ",
"                C 6.A.m.q.' _ ` O.n.Z.x.U                       ",
"              . 2.A.Z.g.' _ ` ` _ w.Z.Z.v.V                     ",
"              # 3.A.Z.h.' ' ' ` _ e.Z.Z.C.f.2                   ",
"            o / d.C.Z.k.| ' ' ' ' r.Z.Z.n.] %                   ",
"            o ^ { r.A.C.h.| [ ' d.C.Z.Z.n.[ ( $                 ",
"            O ^ ' e.Z.Z.C.c.c.c.N.C.Z.Z.c.[ ' $                 ",
"            o ^ 0.b.S.k.N N B B 7.A.Z.Z.B.[ ' $                 ",
"            O X.m.6.I n # K P > b Y 5.Z.N.d.[ $                 ",
"            @ 8.7.E S y 4 i.p.r r S R 5.Z.V.e.3                 ",
"            O ,.b H s.#.4 u.i.r ..s.@.U 7.b.6.h                 ",
"              o X J s.&.a i.p.m @.a.a.@.q x.9                   ",
"                X J a.i.4.t.t.-.u.a.s.#.9 8.9                   ",
"                . H a.&.1 1 , 1 @.a.a.+.O ,                     ",
"                  1 L y.&.&.&.&.t.a.+.1 o                       ",
"                    * u u u u u u u 2 . .                       ",
"                  o ; f & K P > f ; w  .K @                     ",
"                a w d v 2 u.p.r k v N #.4.H <                   ",
"              y L C g l G i.p.w k >.j t a.t.<                   ",
"            o &.m g k 6 *.=.*.2 z >.x b -.t.u                   ",
"            + &.m g k + 2 9 2 , c ;.:.c 0 y.u.0                 ",
"            o &.m g k M x.x.v.v.I k :.x 2 t.i.6                 ",
"              0 : = I x.x.V v.A.x.Q 7 - + 5 6                   ",
"              5.7.F Y S.V.5.T z.S.x.7.~ o                       ",
"                ,.C G 1.<.Y : W 1.$.! B o                       ",
"                * t A Z i o 1 s Z t 1 > o                       ",
"              . 1 t t t e O e t t t t 3 o                       ",
"              . o o o o o o o X X o o o X                       ",
"                                                                "
};
