/* XPM */
static char *_779884955d9474bfb54ef4d5b7d74b0nbfhjnE5Wxs2YNC3[] = {
/* columns rows colors chars-per-pixel */
"32 32 159 2 ",
"   c None",
".  c #0F0F11",
"X  c #141415",
"o  c #171718",
"O  c #181718",
"+  c #1A1A19",
"@  c #202117",
"#  c #23251A",
"$  c #2B2E1A",
"%  c #2E311C",
"&  c #33361E",
"*  c #313320",
"=  c #363A21",
"-  c #13442E",
";  c #164631",
":  c #194733",
">  c #144E34",
",  c #184F37",
"<  c #184F38",
"1  c #1D5236",
"2  c #1A5038",
"3  c #264026",
"4  c #244D31",
"5  c #284F34",
"6  c #2B5035",
"7  c #28573A",
"8  c #335535",
"9  c #385635",
"0  c #3C613A",
"q  c #454A24",
"w  c #494E25",
"e  c #434F28",
"r  c #4A4F29",
"t  c #4E5427",
"y  c #4D522A",
"u  c #51562C",
"i  c #575C32",
"p  c #4B6136",
"a  c #456638",
"s  c #4F6B3D",
"d  c #5F6533",
"f  c #59703E",
"g  c #636C36",
"h  c #676E39",
"j  c #686F38",
"k  c #677137",
"l  c #6A7237",
"z  c #64763C",
"x  c #6A723B",
"c  c #767E3E",
"v  c #787F3D",
"b  c #146B45",
"n  c #196C46",
"m  c #176B48",
"M  c #1C6C49",
"N  c #1E7046",
"B  c #206F46",
"V  c #206E4A",
"C  c #217146",
"Z  c #287247",
"A  c #2F7946",
"S  c #237249",
"D  c #307947",
"F  c #327A49",
"G  c #3B7D4B",
"H  c #697840",
"J  c #777F40",
"K  c #79803F",
"L  c #3E814A",
"P  c #498447",
"I  c #43814C",
"U  c #4B854B",
"Y  c #4E884D",
"T  c #5A8E47",
"R  c #538A4D",
"E  c #5C8D4D",
"W  c #5E904B",
"Q  c #5E8F50",
"!  c #618F4F",
"~  c #798141",
"^  c #63924D",
"/  c #6A944F",
"(  c #779C4E",
")  c #799D4E",
"_  c #679250",
"`  c #6B9550",
"'  c #6D9850",
"]  c #709750",
"[  c #729951",
"{  c #7A9D51",
"}  c #7EA051",
"|  c #81A24F",
" . c #8AA64C",
".. c #8DA94F",
"X. c #90A74F",
"o. c #9AA64C",
"O. c #9DA94C",
"+. c #9FB24F",
"@. c #82A151",
"#. c #83A351",
"$. c #86A551",
"%. c #87A251",
"&. c #8BA551",
"*. c #8DA653",
"=. c #8BA551",
"-. c #8FA851",
";. c #8DA851",
":. c #90A652",
">. c #91A951",
",. c #93A953",
"<. c #9FB151",
"1. c #9FB150",
"2. c #9FB250",
"3. c #9FB152",
"4. c #9FB054",
"5. c #A1B34F",
"6. c #A1B44F",
"7. c #A9B64F",
"8. c #ABB94F",
"9. c #ACB94F",
"0. c #A0B250",
"q. c #A3B153",
"w. c #A3B252",
"e. c #A5B352",
"r. c #A2B551",
"t. c #A3B650",
"y. c #A4B553",
"u. c #A5B652",
"i. c #A5B652",
"p. c #A3B155",
"a. c #A5B253",
"s. c #A9B651",
"d. c #AAB751",
"f. c #A9B552",
"g. c #A8B453",
"h. c #A9B553",
"j. c #A9B652",
"k. c #AAB752",
"l. c #AAB753",
"z. c #ABB753",
"x. c #A8B455",
"c. c #ABB755",
"v. c #A8B456",
"b. c #AAB554",
"n. c #ABB850",
"m. c #ABB852",
"M. c #ACB951",
"N. c #ADB951",
"B. c #ADBA50",
"V. c #AFBB51",
"C. c #ACB853",
"Z. c #ADBA52",
"A. c #AEBB52",
"S. c #AEBC50",
"D. c #ACB954",
"F. c #ACB854",
"G. c #ACB953",
"H. c #B1BE52",
"J. c #B0BC53",
/* pixels */
"                                                                ",
"                                                                ",
"                                                                ",
"                                                                ",
"  = x x x x x x l x x x x x x x x x x k x k x x x x x x x g #   ",
"  3 Y U I R i.D.A.D.i.^ i.$.I L L L L L L L L Y $.' } } J.O.%   ",
"  e -.&.F D q.c.8.j.+.U 2.( M m b b n b b b b M U ^ E >.Z.o.%   ",
"  t m.q.G A 1.j.8.m.+.I r.( n n b b m b b b b M ^ E ^ ) Z.o.$   ",
"  y c.q.G F q.v.j.j.1.U 1.( M M b b M b m b M S R ^ E &.Z.o.$   ",
"  u v.p.G F 1.v.j.j.1.U 1.( M M N n M n M m M S E ! ^ @.F.o.%   ",
"  t j.q.G F q.c.Z.j.q.I 2.( M n b b M b b b M N E ^ ^ | J.o.$   ",
"  u c.p.G F 1.v.j.c.q.U 4.{ S M M M M M M m M S R _ Q *.D.o.*   ",
"  t j.q.G A 1.j.m.7.6.U O.( n n b b M b b b n S ^ E ^ ) Z.o.$   ",
"  t j.q.G D 1.j.Z.j.6.I +.( n n b b b b b b b N P / E >.Z.o.$   ",
"  u Z.i.G D r.F.9.Z.6.U t.) n n b b N b n b b S ^ W ^ | H.O.$   ",
"  * x h 5 4 g x k j g 8 g p > : ; ; ; - ; - : : 4 p 9 h k d @   ",
"    X o O X X o . X . O X O O O X X o . X . o + o X X X . X     ",
"    + i J z 1 < a K v H 1 9 s < > > 2 > 2 > 2 7 f 0 c c =       ",
"    + J c.>.S M ^ c.Z.,.C U ` M M M M m M m M Q W _ ' v.y       ",
"    + c c.*.S M E c.j.:.S U / n M n M b M b M I ' Q &.v.r       ",
"    + J c.*.S m E j.F.:.S Y / n M n M n N n N Q E / ] v.y       ",
"    X c Z...C m W 9.9.,.N P / n b b b b b b n U ^ E ) j.w       ",
"    o c D.-.C m ^ F.9.,.B U ` M n b M b b b N R ^ ! { i.r       ",
"    X v Z...C b W Z.9.,.M U / b b b n b b b m R E ^ ( j.r       ",
"    + J c.*.S M ! j.j.,.S U ` M n n B m M M M U / E %.v.r       ",
"    + ~ c.*.S M E b.F.:.B Y ` V M m V m M M V ! Q _ ] a.r       ",
"    + c c.*.S M E 7.j.:.B U / M n n M b m m M G / E %.a.r       ",
"    + c c.*.S M ! b.F.,.S Y / M M n B m n b M E ! ! [ v.y       ",
"      c j. .B b T 7.7.X.n P ^ m b b n b b b b Z ) U q.a.q       ",
"                                                                ",
"                                                                ",
"                                                                "
};
