/* XPM */
static char *cc9dc7a8bcd24d8ce7ca41ce69db2bd7pjxoywUh0BGNOOlR[] = {
/* columns rows colors chars-per-pixel */
"32 32 140 2 ",
"   c None",
".  c #8F6946",
"X  c #8E6B4A",
"o  c #906A47",
"O  c #926D4A",
"+  c #96714E",
"@  c #98734F",
"#  c #8E6F51",
"$  c #906F50",
"%  c #957453",
"&  c #9A7654",
"*  c #9C7855",
"=  c #967759",
"-  c #97795B",
";  c #9C7C5C",
":  c #9D7F60",
">  c #A1815E",
",  c #9E8162",
"<  c #A38464",
"1  c #A88765",
"2  c #A78867",
"3  c #A98967",
"4  c #A48769",
"5  c #A6896B",
"6  c #AC8D6C",
"7  c #B08F6D",
"8  c #AF906F",
"9  c #B1916E",
"0  c #A58C70",
"q  c #AB8F71",
"w  c #AE9172",
"e  c #B39574",
"r  c #B79875",
"t  c #B99977",
"y  c #B49779",
"u  c #B5997A",
"i  c #BA9B79",
"p  c #B89A7B",
"a  c #B99A79",
"s  c #BB9C7A",
"d  c #BC9D7B",
"f  c #BD9E7B",
"g  c #B99C7C",
"h  c #B99C7D",
"j  c #BB9C7C",
"k  c #B89C7E",
"l  c #B99D7F",
"z  c #BA9D7E",
"x  c #BB9E7E",
"c  c #BB9E7F",
"v  c #BD9E7C",
"b  c #BE9F7C",
"n  c #BE9F7D",
"m  c #BD9F7E",
"M  c #BC9E7F",
"N  c #BC9F7F",
"B  c #BD9F7F",
"V  c #BE9F7E",
"C  c #BB9D7C",
"Z  c #BFA07E",
"A  c #BFA07D",
"S  c #C0A17E",
"D  c #C0A17F",
"F  c #C1A27F",
"G  c #C0A17F",
"H  c #BDA080",
"J  c #BFA181",
"K  c #BEA182",
"L  c #BEA181",
"P  c #C0A280",
"I  c #C1A280",
"U  c #C0A281",
"Y  c #C2A380",
"T  c #C2A381",
"R  c #C3A381",
"E  c #C0A282",
"W  c #C0A382",
"Q  c #C0A383",
"!  c #C2A382",
"~  c #C3A481",
"^  c #C2A482",
"/  c #C3A482",
"(  c #C3A483",
")  c #C4A582",
"_  c #C4A583",
"`  c #C2A484",
"'  c #C3A584",
"]  c #C5A684",
"[  c #C4A685",
"{  c #C4A785",
"}  c #C5A785",
"|  c #C6A785",
" . c #C5A786",
".. c #C4A583",
"X. c #C6A886",
"o. c #C7A886",
"O. c #C6A887",
"+. c #C7A887",
"@. c #C7A987",
"#. c #C7A886",
"$. c #C8A886",
"%. c #C8A986",
"&. c #C8A987",
"*. c #C9AA87",
"=. c #C8A987",
"-. c #C7A989",
";. c #C6A989",
":. c #C8AA88",
">. c #C9AA88",
",. c #C8AA89",
"<. c #C9AA89",
"1. c #C8AB89",
"2. c #C9AB89",
"3. c #CAAB88",
"4. c #CAAB89",
"5. c #C8AA8A",
"6. c #C9AB8A",
"7. c #CAAB8A",
"8. c #C9AC8A",
"9. c #C9AC8B",
"0. c #CAAC8A",
"q. c #CBAC8A",
"w. c #CBAD8C",
"e. c #CBAE8D",
"r. c #CBAE8E",
"t. c #CCAE8D",
"y. c #CCAF8E",
"u. c #CAAB8A",
"i. c #CDB090",
"p. c #CDB191",
"a. c #CDB192",
"s. c #CEB192",
"d. c #CEB292",
"f. c #CFB292",
"g. c #CEB293",
"h. c #CFB293",
"j. c #CFB393",
"k. c #D0B495",
"l. c #D2B698",
"z. c #D3B89C",
/* pixels */
"  z.j.j.i.j.j.i.i.i.j.i.i.j.i.i.i.i.i.j.i.i.k.i.i.k.k.i.k.k.k.  ",
"l.w.7.7.w.-.w.0.0.7.7.*.-.7.*.*.7.7.7.-.+.7.7.7.7.7.7.7.*.7.7.] ",
"i.0.0.{ w i -.-.*.*.7.-.X.*.X.*.+.+.{ { +.7.*.*.*.7.*.*.0.7.0.Z ",
"t.7.0.X.e C -.X.K K C C Z K ( { { { a 4 6 R +.+.*.7.7.7.7.0.0.C ",
"t.0.7.7.7.K w 4 > ; ; < > 2 8 e b R t ; 4 ` +.+.{ ` y e u { q.b ",
"y.0.*.X.y 4 & X o O o o o + + ; 2 a Z Z R E R R R 6 - $ & < -.H ",
"y.0.7.R < * O o . . . . o o + + * 1 f f b Z F R ` 6 $ X X , -.b ",
"w.7.*.R < * % o . O . O X o O + % : f r y y a Z R ( C y H -.9.H ",
"w.-.-.X.a ; % o o X o o . . . . - q 6 < : ; : 6 a R { X.7.7.7.b ",
"w.0.X.{ X.K e < ; & + % # # - 4 9 9 < * O O O $ 6 R ( { { *.7.b ",
"w.( 3 , e ( F Z p e w 6 8 8 8 3 3 6 6 : ; = - 4 h b e q y { 7.C ",
"w.X.e 5 C R b i r e 9 6 3 1 < < 1 < 1 6 q 9 e f a a : % % y 7.H ",
"y.7.*.X.] Z f t r 9 6 , > ; > > : > 1 > : < 4 3 6 y r y h +.7.b ",
"w.7.*.] R Z f t e 8 2 % # # > > : ; ; - % % % % * ; < y ` { 7.h ",
"w.X.k w 5 6 q e 9 8 3 > ; , > ; - ; ; @ O o o o o O * ; y { 7.h ",
"w.( , % O % % 3 e 9 3 1 > > > ; ; * & @ O O o o o O O % e *.7.C ",
"w.X.e ; % % , e e 6 3 1 > > ; ; ; ; ; % + X . X . X ; w { X.-.C ",
"w.7.*.{ K K i t 8 , ; % > > > > ; ; ; < < < 5 6 w y Z ( { X.0.C ",
"w.7.X.] ( Z i t 8 , % ; > > > ; = = & % < 6 7 r u f Z ] { X.7.C ",
"w.*.X.{ ( Z Z i e e 9 6 6 > > ; & + X X > 7 9 e t f Z u ( -.-.C ",
"w.7.X.X.{ F i w 8 6 5 4 2 2 < < , ; - 4 6 9 e r a b a , e *.7.C ",
"t.7.*.X.K w 4 ; % % * ; ; < 1 3 6 6 6 8 9 9 e t f b F K X.X.7.C ",
"t.*.*.{ p > * + o . o + % * < 9 6 8 8 6 3 2 5 8 a F ( ] X.-.7.C ",
"t.7.*.*.( 8 % + + . . X + = 8 9 9 9 9 4 ; % % ; < b ] X.X.-.7.H ",
"t.{ e K +.+.b e 6 4 4 5 w u a y r r y < & O o O % a +.+.+.3.3.b ",
"t.+.a { *.{ { { ] R K F f f i i i i i a 4 ; % ; w { +.+.+.3.7.b ",
"t.0.0.7.7.+.{ +.] R R R F Z b b f f b Z R ` R { 7.{ +.7.+.7.7.H ",
"t.7.7.{ H h h j H ] ] R R R i , ; < R R R { ] +.{ { { 4.7.7.9.b ",
"t.9.;.q : ; & ; : t +.R ] { R e 4 w { { { { +.+.u , , y 7.7.7.b ",
"t.9.;.9 * $ o $ - y 7.+.+.{ { +.7.7.+.{ *.*.*.*.H 4 , H 7.7.7.C ",
"+.7.9.r.-.` K ` 5.9.7.4.*.*.7.7.*.7.7.*.7.*.7.7.0.t.w.w.7.w.{ q ",
"  y u u u u u u a y y y y y u y y y y y y u u u u u u u y y 0   "
};
