/* XPM */
static char *_2107c57e11d41bbe7860c8f8d66e65bo769zTFqkcW2z1Kg[] = {
/* columns rows colors chars-per-pixel */
"32 32 150 2 ",
"   c None",
".  c #040506",
"X  c #06070A",
"o  c #07080B",
"O  c #0B0B0C",
"+  c #100F0B",
"@  c #12100E",
"#  c #0D0E10",
"$  c #0F1012",
"%  c #131314",
"&  c #191714",
"*  c #1E1A12",
"=  c #161719",
"-  c #211D16",
";  c #252116",
":  c #2A2315",
">  c #26221B",
",  c #2C2619",
"<  c #2F291D",
"1  c #322B1B",
"2  c #3E3217",
"3  c #3D321A",
"4  c #423619",
"5  c #44381D",
"6  c #4C3D1C",
"7  c #463B23",
"8  c #4D3F22",
"9  c #4F401F",
"0  c #51411D",
"q  c #4F4122",
"w  c #544422",
"e  c #5A4925",
"r  c #624E22",
"t  c #665125",
"y  c #6B5424",
"u  c #6F5825",
"i  c #6B5629",
"p  c #795F27",
"a  c #775F2C",
"s  c #7B6027",
"d  c #7D632A",
"f  c #806428",
"g  c #85692C",
"h  c #8A6C2C",
"j  c #8F702C",
"k  c #94732C",
"l  c #8C6F30",
"z  c #9A7830",
"x  c #A27F32",
"c  c #AA8534",
"v  c #AE8837",
"b  c #B78E36",
"n  c #B88E34",
"m  c #B58E38",
"M  c #BB9136",
"N  c #BD9339",
"B  c #C29739",
"V  c #C3983D",
"C  c #CA9D3C",
"Z  c #D4A43E",
"A  c #DBA93E",
"S  c #E1AE3F",
"D  c #EAB43F",
"F  c #CA9E40",
"G  c #CEA242",
"H  c #D3A641",
"J  c #D6A844",
"K  c #DBAB43",
"L  c #E1AE42",
"P  c #E5B244",
"I  c #EAB440",
"U  c #EAB441",
"Y  c #E8B442",
"T  c #E9B442",
"R  c #E9B443",
"E  c #E9B543",
"W  c #EBB542",
"Q  c #EBB642",
"!  c #EBB643",
"~  c #E8B441",
"^  c #EDB640",
"/  c #ECB641",
"(  c #EEB740",
")  c #ECB642",
"_  c #EDB742",
"`  c #E8B444",
"'  c #E9B444",
"]  c #E9B544",
"[  c #E8B445",
"{  c #EAB544",
"}  c #EAB644",
"|  c #EAB645",
" . c #E8B547",
".. c #EAB646",
"X. c #EBB746",
"o. c #ECB744",
"O. c #EDB744",
"+. c #EBB644",
"@. c #EEB842",
"#. c #EEB843",
"$. c #ECB845",
"%. c #EDB845",
"&. c #EFB844",
"*. c #EEB944",
"=. c #EFB944",
"-. c #EEB845",
";. c #ECB846",
":. c #ECB847",
">. c #EDB847",
",. c #EFB946",
"<. c #EEB947",
"1. c #EFBA46",
"2. c #EEB944",
"3. c #E0B048",
"4. c #E8B649",
"5. c #EAB748",
"6. c #EAB648",
"7. c #EFBA49",
"8. c #F1B940",
"9. c #F1B941",
"0. c #F3BA40",
"q. c #F3BB41",
"w. c #F0B942",
"e. c #F0B943",
"r. c #F2BA42",
"t. c #F2BB42",
"y. c #F2BB43",
"u. c #F5BD43",
"i. c #F6BD42",
"p. c #F0B944",
"a. c #F0B945",
"s. c #F1BA44",
"d. c #F1BB44",
"f. c #F0BA45",
"g. c #F2BB44",
"h. c #F3BB45",
"j. c #F0BB47",
"k. c #F1BB47",
"l. c #F3BC45",
"z. c #F2BC47",
"x. c #F4BC44",
"c. c #F5BD44",
"v. c #F5BE45",
"b. c #F6BE44",
"n. c #F7BE44",
"m. c #F4BD47",
"M. c #F2BB43",
"N. c #F9BF42",
"B. c #F1BB48",
"V. c #F3BD48",
/* pixels */
"                                                                ",
"                            o O o                               ",
"                          < : , :                               ",
"                        # i P L K 5 =                           ",
"                        # i [ [ L 5 =                           ",
"                        X y b.d.] 3 %                           ",
"                      3 s v e.d.! z a -                         ",
"                    O 4 _ e.D @.e.u.Z * &                       ",
"  O & % & $ # # O = % 5 ~ @.1.o.d.d.F - & % O + # % % # O       ",
"  O & - > * - * - ; - 9 P ! ! ! ] o.F 1 - - - - - - > & # $     ",
"  # < F H H Z J H H G K z.1.1.1.d.B.4.H G H H H H H H c & %     ",
"  . , c V _ e.D _ ! ! L n C ! _ U B N P ] o.@.D _ ~ N z +       ",
"      % w b.u.u.d.1.z.N % u u.t._ 4 1 L ] z.z.u.b.P 1 @         ",
"      o 7 h N _ ! P ] b @ y _ ! S 4 : K P ! _ ! c g :           ",
"          X f N.e.@.e.M O y u.t.D 4 : L 1.e.e.e.0 O             ",
"            6 t V 1.1.b @ y e.@.~ 4 , J ] @.c r 3               ",
"              o c ,.,.M + y q.,.D 4 1 A ] c.a .                 ",
"              + c B.,.L B Z c.d.o.C V o.6.V.f O                 ",
"            < , v L L [ +.[ ~ P U [ L P L [ h :                 ",
"          # s P +.,.o.,.d.,.d.o.,.,.>.>.6.o.P L w #             ",
"          $ d o.[ L L [ U P ~ P ~ P 3.L 3.[ [ P w %             ",
"          O f V.,.,.>.d.u.e.b.c.c.d.>.,.6.d.d.q.q #             ",
"        7 f n e._ [ [ o.e.N a d s Z ] +.[ W o.&.x d 1           ",
"      O 8 d.q.D &.o._ _ u.h . o + n o.o.[ &.&.D u.J : X         ",
"      # q ] 1.e.e.L t 6 0 4       6 w 6 d _ u.D e.A , o         ",
"      * e U L A J C , O O O       o $ # 8 A A A ! Z 3 *         ",
"  % 1 F K d.h : , 1                       , , , m <.K v & %     ",
"  o ; c m b y . o o                       X o X h b b j + O     ",
"  o @ % @ + @                                   + @ @ @ o O     ",
"    X X o .                                       . . o X       ",
"                                                                ",
"                                                                "
};
